<?xml version="1.0" standalone="no"?>
<svg xmlns="http://www.w3.org/2000/svg" viewBox="0 0 184.736 53" width="184.736" height="53"><rect fill="none" stroke="#00936f" stroke-width="3" width="181.736" height="50" x="1.5" y="1.5"></rect><g fill="#1c2149" color="#1c2149" transform="translate(12, 12.001) scale(0.58)"><svg width="50.0" height="50.0" x="0.0" y="0.0" viewBox="0 0 50 50"><path fill="currentColor" fill-rule="evenodd" d="M25 0l25 25-25 25L0 25 25 0zm0 8.333L8.333 25 25 41.667 41.667 25 25 8.333zm0 8.334L33.333 25 25 33.333 16.667 25 25 16.667z"></path></svg></g><line x1="51.5" y1="0" x2="51.5" y2="100%" stroke="#00936f" stroke-width="3"></line><path fill="#1c2149" fill-rule="nonzero" d="M0 17.81L0 1.01L6.84 1.01Q9.50 1.01 11.54 2.08Q13.58 3.14 14.71 5.05Q15.84 6.96 15.84 9.41L15.84 9.41Q15.84 11.86 14.71 13.76Q13.58 15.67 11.54 16.74Q9.50 17.81 6.84 17.81L6.84 17.81L0 17.81ZM1.78 16.27L6.74 16.27Q8.95 16.27 10.61 15.40Q12.26 14.52 13.18 12.97Q14.09 11.42 14.09 9.41L14.09 9.41Q14.09 7.39 13.18 5.84Q12.26 4.30 10.61 3.42Q8.95 2.54 6.74 2.54L6.74 2.54L1.78 2.54L1.78 16.27ZM24.86 16.42Q26.04 16.42 27.04 16.00Q28.03 15.58 28.73 14.76L28.73 14.76L29.69 15.86Q28.85 16.87 27.60 17.40Q26.35 17.93 24.84 17.93L24.84 17.93Q22.90 17.93 21.38 17.10Q19.87 16.27 19.03 14.81Q18.19 13.34 18.19 11.50L18.19 11.50Q18.19 9.65 19.00 8.18Q19.80 6.72 21.22 5.90Q22.63 5.09 24.43 5.09L24.43 5.09Q26.11 5.09 27.47 5.86Q28.82 6.62 29.63 7.99Q30.43 9.36 30.48 11.11L30.48 11.11L20.11 13.13Q20.59 14.66 21.85 15.54Q23.11 16.42 24.86 16.42L24.86 16.42ZM24.43 6.55Q23.11 6.55 22.07 7.16Q21.02 7.78 20.44 8.87Q19.85 9.96 19.85 11.38L19.85 11.38Q19.85 11.74 19.87 11.90L19.87 11.90L28.78 10.18Q28.49 8.59 27.31 7.57Q26.14 6.55 24.43 6.55L24.43 6.55ZM42.65 5.18L44.33 5.18L38.71 17.81L36.96 17.81L31.37 5.18L33.14 5.18L37.87 15.94L42.65 5.18ZM54.19 17.95Q51.70 17.95 49.69 16.85Q47.69 15.74 46.55 13.79Q45.41 11.83 45.41 9.41L45.41 9.41Q45.41 6.98 46.55 5.03Q47.69 3.07 49.70 1.97Q51.72 0.86 54.22 0.86L54.22 0.86Q56.09 0.86 57.67 1.49Q59.26 2.11 60.36 3.31L60.36 3.31L59.23 4.44Q57.26 2.45 54.26 2.45L54.26 2.45Q52.27 2.45 50.64 3.36Q49.01 4.27 48.08 5.86Q47.16 7.44 47.16 9.41L47.16 9.41Q47.16 11.38 48.08 12.96Q49.01 14.54 50.64 15.46Q52.27 16.37 54.26 16.37L54.26 16.37Q57.29 16.37 59.23 14.35L59.23 14.35L60.36 15.48Q59.26 16.68 57.66 17.32Q56.06 17.95 54.19 17.95L54.19 17.95ZM63.79 17.81L63.79 5.18L65.50 5.18L65.50 17.81L63.79 17.81ZM64.66 2.42Q64.13 2.42 63.77 2.06Q63.41 1.70 63.41 1.20L63.41 1.20Q63.41 0.72 63.77 0.36Q64.13 0 64.66 0L64.66 0Q65.18 0 65.54 0.35Q65.90 0.70 65.90 1.18L65.90 1.18Q65.90 1.70 65.54 2.06Q65.18 2.42 64.66 2.42L64.66 2.42ZM73.63 17.93Q72.10 17.93 70.69 17.48Q69.29 17.04 68.50 16.37L68.50 16.37L69.26 15.02Q70.06 15.65 71.26 16.04Q72.46 16.44 73.75 16.44L73.75 16.44Q75.48 16.44 76.31 15.90Q77.14 15.36 77.14 14.38L77.14 14.38Q77.14 13.68 76.68 13.28Q76.22 12.89 75.53 12.68Q74.83 12.48 73.68 12.29L73.68 12.29Q72.14 12 71.21 11.70Q70.27 11.40 69.61 10.68Q68.95 9.96 68.95 8.69L68.95 8.69Q68.95 7.10 70.27 6.10Q71.59 5.09 73.94 5.09L73.94 5.09Q75.17 5.09 76.39 5.41Q77.62 5.74 78.41 6.26L78.41 6.26L77.66 7.63Q76.10 6.55 73.94 6.55L73.94 6.55Q72.31 6.55 71.48 7.13Q70.66 7.70 70.66 8.64L70.66 8.64Q70.66 9.36 71.12 9.79Q71.59 10.22 72.29 10.43Q72.98 10.63 74.21 10.85L74.21 10.85Q75.72 11.14 76.63 11.42Q77.54 11.71 78.19 12.41Q78.84 13.10 78.84 14.33L78.84 14.33Q78.84 15.98 77.46 16.96Q76.08 17.93 73.63 17.93L73.63 17.93ZM85.37 17.93Q83.83 17.93 82.43 17.48Q81.02 17.04 80.23 16.37L80.23 16.37L81 15.02Q81.79 15.65 82.99 16.04Q84.19 16.44 85.49 16.44L85.49 16.44Q87.22 16.44 88.04 15.90Q88.87 15.36 88.87 14.38L88.87 14.38Q88.87 13.68 88.42 13.28Q87.96 12.89 87.26 12.68Q86.57 12.48 85.42 12.29L85.42 12.29Q83.88 12 82.94 11.70Q82.01 11.40 81.35 10.68Q80.69 9.96 80.69 8.69L80.69 8.69Q80.69 7.10 82.01 6.10Q83.33 5.09 85.68 5.09L85.68 5.09Q86.90 5.09 88.13 5.41Q89.35 5.74 90.14 6.26L90.14 6.26L89.40 7.63Q87.84 6.55 85.68 6.55L85.68 6.55Q84.05 6.55 83.22 7.13Q82.39 7.70 82.39 8.64L82.39 8.64Q82.39 9.36 82.86 9.79Q83.33 10.22 84.02 10.43Q84.72 10.63 85.94 10.85L85.94 10.85Q87.46 11.14 88.37 11.42Q89.28 11.71 89.93 12.41Q90.58 13.10 90.58 14.33L90.58 14.33Q90.58 15.98 89.20 16.96Q87.82 17.93 85.37 17.93L85.37 17.93ZM99.12 16.42Q100.30 16.42 101.29 16.00Q102.29 15.58 102.98 14.76L102.98 14.76L103.94 15.86Q103.10 16.87 101.86 17.40Q100.61 17.93 99.10 17.93L99.10 17.93Q97.15 17.93 95.64 17.10Q94.13 16.27 93.29 14.81Q92.45 13.34 92.45 11.50L92.45 11.50Q92.45 9.65 93.25 8.18Q94.06 6.72 95.47 5.90Q96.89 5.09 98.69 5.09L98.69 5.09Q100.37 5.09 101.72 5.86Q103.08 6.62 103.88 7.99Q104.69 9.36 104.74 11.11L104.74 11.11L94.37 13.13Q94.85 14.66 96.11 15.54Q97.37 16.42 99.12 16.42L99.12 16.42ZM98.69 6.55Q97.37 6.55 96.32 7.16Q95.28 7.78 94.69 8.87Q94.10 9.96 94.10 11.38L94.10 11.38Q94.10 11.74 94.13 11.90L94.13 11.90L103.03 10.18Q102.74 8.59 101.57 7.57Q100.39 6.55 98.69 6.55L98.69 6.55Z" transform="translate(65 17.596)"></path></svg>