<?xml version="1.0" standalone="no"?>
<svg xmlns="http://www.w3.org/2000/svg" width="144.56" height="91.8" viewBox="0 0 144.56 91.8"><g fill="#ff8686" color="#ff8686" transform="translate(49.364 0) scale(1.0416667)"><svg width="44.0" height="48.0" x="0.0" y="0.0" viewBox="0 0 44 48"><path fill="currentColor" fill-rule="evenodd" d="M26.592 7.876c-1.442 3.958-2.352 9.744-2.352 16.195 0 6.393.894 12.136 2.311 16.09-.691.939-1.454 1.46-2.256 1.46-3.13-.003-5.665-7.895-5.665-17.634 0-9.734 2.535-17.63 5.661-17.63.82.001 1.599.546 2.3 1.52M37.084 24.07c.003 6.693-1.663 12.123-3.716 12.123s-3.717-5.43-3.717-12.121c0-6.696 1.664-12.124 3.717-12.127 2.056.003 3.719 5.43 3.716 12.125M21.51 0c2.12.002 4.037 2.67 5.43 6.98 1.172-2.82 2.642-4.504 4.238-4.504 3.83-.005 6.936 9.668 6.934 21.594.002 11.926-3.106 21.597-6.937 21.596-1.607 0-3.089-1.711-4.265-4.573-1.389 4.256-3.296 6.882-5.397 6.884-4.257-.002-7.708-10.74-7.708-23.99C13.805 10.745 17.257 0 21.51 0zm-6.145 2.36c-5.194 4.504-8.651 12.467-8.651 21.535 0 9.067 3.455 17.03 8.655 21.531C6.292 41.661-.003 33.435 0 23.894 0 14.356 6.292 6.129 15.365 2.361zm26.647 14.91c1.098 0 1.986 2.9 1.988 6.483-.002 3.577-.891 6.48-1.99 6.48-1.096 0-1.985-2.9-1.987-6.482-.002-3.58.891-6.482 1.99-6.482z"></path></svg></g><path fill="#fe0b01" fill-rule="nonzero" d="M7.36 12.24L7.36 12.24Q8.52 13.32 10.30 13.32Q12.08 13.32 13.22 11.82Q14.36 10.32 14.36 7.84L14.36 7.84Q14.36 2.28 9.08 2.28L9.08 2.28Q7.28 2.28 5.32 3.08L5.32 3.08Q5.04 6.56 5.04 12.96Q5.04 19.36 5.40 23.88L5.40 23.88L6.88 24Q6.96 24.88 6.96 25.22Q6.96 25.56 6.84 26.24L6.84 26.24Q5.68 26.20 3.44 26.20Q1.20 26.20 0.36 26.24L0.36 26.24Q0.24 25.64 0.24 25.10Q0.24 24.56 0.32 24L0.32 24L1.72 23.88Q2.04 19.48 2.04 12.84Q2.04 6.20 1.64 3.04L1.64 3.04L0.12 2.92Q0 2.44 0 1.68Q0 0.92 0.04 0.68L0.04 0.68Q2.72 0.60 4.76 0.30Q6.80 0 9.12 0L9.12 0Q17.84 0 17.84 7.84L17.84 7.84Q17.84 11.00 16.28 13.04Q14.72 15.08 11.92 15.60L11.92 15.60Q15.88 21.88 17.40 23.68L17.40 23.68L19.28 23.80Q19.36 24.44 19.36 24.98Q19.36 25.52 19.24 26.12L19.24 26.12Q15.60 26.24 14.16 26.32L14.16 26.32L14.00 25.88Q13.32 24.20 12.34 22.38Q11.36 20.56 8.24 15.68L8.24 15.68Q7.40 15.64 6.52 15.24L6.52 15.24Q6.52 14.44 6.78 13.50Q7.04 12.56 7.36 12.24ZM34.60 11.48L34.72 9.96Q35.60 9.88 35.92 9.88Q36.24 9.88 36.96 10L36.96 10Q36.92 11.24 36.92 13.20Q36.92 15.16 36.96 15.76L36.96 15.76Q36.36 15.88 35.80 15.88Q35.24 15.88 34.72 15.80L34.72 15.80L34.60 14.40Q32.44 14.32 31.04 14.32Q29.64 14.32 27.48 14.40L27.48 14.40Q27.48 19.64 27.76 23.16L27.76 23.16Q29.16 23.28 31.74 23.28Q34.32 23.28 35.80 23.08L35.80 23.08L35.92 20.36Q36.60 20.24 37.18 20.24Q37.76 20.24 38.16 20.28L38.16 20.28Q38.20 23.40 38.52 26.20L38.52 26.20L38.32 26.40Q36.36 26.20 29.74 26.20Q23.12 26.20 22.76 26.24L22.76 26.24Q22.64 25.64 22.64 25.10Q22.64 24.56 22.72 24L22.72 24L24.12 23.88Q24.48 17.68 24.48 12.66Q24.48 7.64 24.00 2.96L24.00 2.96L22.64 2.84Q22.56 2.32 22.56 1.76Q22.56 1.20 22.68 0.60L22.68 0.60Q23.68 0.64 30 0.64Q36.32 0.64 38.12 0.28L38.12 0.28L38.32 0.48Q38 4 37.96 6.16L37.96 6.16Q37.56 6.20 36.96 6.20Q36.36 6.20 35.72 6.08L35.72 6.08L35.60 3.36Q33.56 3.24 31.36 3.24Q29.16 3.24 27.72 3.36L27.72 3.36Q27.48 5.88 27.48 11.60L27.48 11.60Q28.12 11.64 30.08 11.64Q32.04 11.64 34.60 11.48L34.60 11.48ZM42.32 2.84L40.84 2.72Q40.76 2.08 40.76 1.62Q40.76 1.16 40.88 0.48L40.88 0.48Q42.28 0.52 44.38 0.52Q46.48 0.52 48 0.48L48 0.48Q48.12 1.08 48.12 1.54Q48.12 2 48.04 2.72L48.04 2.72L46.64 2.84Q47.48 7.40 49.08 13.06Q50.68 18.72 52.32 22.72L52.32 22.72L52.56 22.72Q54 19.20 55.66 13.08Q57.32 6.96 58 2.84L58 2.84L56.52 2.72Q56.44 2.40 56.44 1.78Q56.44 1.16 56.56 0.48L56.56 0.48Q58 0.52 60.04 0.52Q62.08 0.52 63.32 0.48L63.32 0.48Q63.44 1.08 63.44 1.50Q63.44 1.92 63.36 2.72L63.36 2.72L61.96 2.84Q60.16 7.64 57.62 15.16Q55.08 22.68 54.20 26.20L54.20 26.20Q52.76 26.56 51.58 26.56Q50.40 26.56 50.04 26.52L50.04 26.52Q45.92 11.76 42.32 2.84L42.32 2.84ZM78.12 11.48L78.24 9.96Q79.12 9.88 79.44 9.88Q79.76 9.88 80.48 10L80.48 10Q80.44 11.24 80.44 13.20Q80.44 15.16 80.48 15.76L80.48 15.76Q79.88 15.88 79.32 15.88Q78.76 15.88 78.24 15.80L78.24 15.80L78.12 14.40Q75.96 14.32 74.56 14.32Q73.16 14.32 71 14.40L71 14.40Q71 19.64 71.28 23.16L71.28 23.16Q72.68 23.28 75.26 23.28Q77.84 23.28 79.32 23.08L79.32 23.08L79.44 20.36Q80.12 20.24 80.70 20.24Q81.28 20.24 81.68 20.28L81.68 20.28Q81.72 23.40 82.04 26.20L82.04 26.20L81.84 26.40Q79.88 26.20 73.26 26.20Q66.64 26.20 66.28 26.24L66.28 26.24Q66.16 25.64 66.16 25.10Q66.16 24.56 66.24 24L66.24 24L67.64 23.88Q68 17.68 68 12.66Q68 7.64 67.52 2.96L67.52 2.96L66.16 2.84Q66.08 2.32 66.08 1.76Q66.08 1.20 66.20 0.60L66.20 0.60Q67.20 0.64 73.52 0.64Q79.84 0.64 81.64 0.28L81.64 0.28L81.84 0.48Q81.52 4 81.48 6.16L81.48 6.16Q81.08 6.20 80.48 6.20Q79.88 6.20 79.24 6.08L79.24 6.08L79.12 3.36Q77.08 3.24 74.88 3.24Q72.68 3.24 71.24 3.36L71.24 3.36Q71 5.88 71 11.60L71 11.60Q71.64 11.64 73.60 11.64Q75.56 11.64 78.12 11.48L78.12 11.48ZM94.20 12.24L94.20 12.24Q95.36 13.32 97.14 13.32Q98.92 13.32 100.06 11.82Q101.20 10.32 101.20 7.84L101.20 7.84Q101.20 2.28 95.92 2.28L95.92 2.28Q94.12 2.28 92.16 3.08L92.16 3.08Q91.88 6.56 91.88 12.96Q91.88 19.36 92.24 23.88L92.24 23.88L93.72 24Q93.80 24.88 93.80 25.22Q93.80 25.56 93.68 26.24L93.68 26.24Q92.52 26.20 90.28 26.20Q88.04 26.20 87.20 26.24L87.20 26.24Q87.08 25.64 87.08 25.10Q87.08 24.56 87.16 24L87.16 24L88.56 23.88Q88.88 19.48 88.88 12.84Q88.88 6.20 88.48 3.04L88.48 3.04L86.96 2.92Q86.84 2.44 86.84 1.68Q86.84 0.92 86.88 0.68L86.88 0.68Q89.56 0.60 91.60 0.30Q93.64 0 95.96 0L95.96 0Q104.68 0 104.68 7.84L104.68 7.84Q104.68 11.00 103.12 13.04Q101.56 15.08 98.76 15.60L98.76 15.60Q102.72 21.88 104.24 23.68L104.24 23.68L106.12 23.80Q106.20 24.44 106.20 24.98Q106.20 25.52 106.08 26.12L106.08 26.12Q102.44 26.24 101.00 26.32L101.00 26.32L100.84 25.88Q100.16 24.20 99.18 22.38Q98.20 20.56 95.08 15.68L95.08 15.68Q94.24 15.64 93.36 15.24L93.36 15.24Q93.36 14.44 93.62 13.50Q93.88 12.56 94.20 12.24ZM110.16 18.40Q111.40 18.40 112.08 19.16Q112.76 19.92 112.76 21.02Q112.76 22.12 112.40 22.80L112.40 22.80Q114.16 24.24 116.46 24.24Q118.76 24.24 119.92 23.18Q121.08 22.12 121.08 20.28Q121.08 18.44 119.80 17.12Q118.52 15.80 116.70 14.92Q114.88 14.04 113.08 13.06Q111.28 12.08 110.00 10.44Q108.72 8.80 108.72 6.56L108.72 6.56Q108.72 3.48 110.76 1.74Q112.80 0 116.00 0Q119.20 0 121.54 1.52Q123.88 3.04 123.88 5.62Q123.88 8.20 121.80 8.20L121.80 8.20Q120.56 8.20 119.88 7.44Q119.20 6.68 119.20 5.48Q119.20 4.28 119.68 3.64L119.68 3.64Q118.28 2.36 116.24 2.36Q114.20 2.36 113.18 3.40Q112.16 4.44 112.16 6Q112.16 7.56 113.08 8.66Q114.00 9.76 115.36 10.46Q116.72 11.16 118.32 12.06Q119.92 12.96 121.28 13.84Q122.64 14.72 123.56 16.22Q124.48 17.72 124.48 19.64L124.48 19.64Q124.48 22.80 122.30 24.80Q120.12 26.80 116.72 26.80Q113.32 26.80 110.70 25.22Q108.08 23.64 108.08 20.80L108.08 20.80Q108.08 18.40 110.16 18.40L110.16 18.40ZM140.64 11.48L140.76 9.96Q141.64 9.88 141.96 9.88Q142.28 9.88 143 10L143 10Q142.96 11.24 142.96 13.20Q142.96 15.16 143 15.76L143 15.76Q142.40 15.88 141.84 15.88Q141.28 15.88 140.76 15.80L140.76 15.80L140.64 14.40Q138.48 14.32 137.08 14.32Q135.68 14.32 133.52 14.40L133.52 14.40Q133.52 19.64 133.80 23.16L133.80 23.16Q135.20 23.28 137.78 23.28Q140.36 23.28 141.84 23.08L141.84 23.08L141.96 20.36Q142.64 20.24 143.22 20.24Q143.80 20.24 144.20 20.28L144.20 20.28Q144.24 23.40 144.56 26.20L144.56 26.20L144.36 26.40Q142.40 26.20 135.78 26.20Q129.16 26.20 128.80 26.24L128.80 26.24Q128.68 25.64 128.68 25.10Q128.68 24.56 128.76 24L128.76 24L130.16 23.88Q130.52 17.68 130.52 12.66Q130.52 7.64 130.04 2.96L130.04 2.96L128.68 2.84Q128.60 2.32 128.60 1.76Q128.60 1.20 128.72 0.60L128.72 0.60Q129.72 0.64 136.04 0.64Q142.36 0.64 144.16 0.28L144.16 0.28L144.36 0.48Q144.04 4 144 6.16L144 6.16Q143.60 6.20 143 6.20Q142.40 6.20 141.76 6.08L141.76 6.08L141.64 3.36Q139.60 3.24 137.40 3.24Q135.20 3.24 133.76 3.36L133.76 3.36Q133.52 5.88 133.52 11.60L133.52 11.60Q134.16 11.64 136.12 11.64Q138.08 11.64 140.64 11.48L140.64 11.48Z" transform="translate(0 65) scale(1)"></path></svg>